<svg width="292" height="292" viewBox="0 0 292 292" fill="none" xmlns="http://www.w3.org/2000/svg">
<circle cx="146" cy="146" r="146" fill="url(#paint0_linear_3_96)"/>
<path d="M284.029 193.702C289.195 178.754 292 162.704 292 146C292 65.3665 226.634 0 146 0C65.3664 0 0 65.3665 0 146C0 162.643 2.78487 178.636 7.91403 193.538C13.7653 189.063 30.0004 172.33 64.0309 135.858C70.2068 129.239 75.2652 127.092 84.7952 127.046C90.347 127.019 93.1289 127.544 96.372 129.229C98.8199 130.501 109.277 140.171 120.886 151.897C123.039 154.072 124.991 156.075 126.773 157.903C136.054 167.426 140.751 172.244 145.48 172.276C150.325 172.309 155.205 167.318 165.083 157.214C166.935 155.32 168.962 153.246 171.198 150.992C190.561 131.471 192.82 129.517 197.509 128.239C204.472 126.34 213.012 126.649 218.313 128.991C221.617 130.45 230.093 138.66 252.521 162.121C267.241 177.519 280.471 190.76 284.029 193.702Z" fill="url(#paint1_linear_3_96)"/>
<path d="M270.124 222.909C264.315 221.911 260.844 219.299 251.36 209.491C248.865 206.912 246.524 204.49 244.324 202.215C213.07 169.887 210.579 167.31 207.988 167.206C207.763 167.197 207.538 167.207 207.293 167.217C207.095 167.225 206.883 167.234 206.648 167.234C203.084 167.234 201.581 168.481 182.703 187.083C163.612 205.895 162.244 207.023 156.522 208.682C152.323 209.898 148.251 210.289 143.153 209.962C131.685 209.229 127.712 206.503 107.335 185.389C90.201 167.635 89.7213 167.234 85.5928 167.234C81.4284 167.234 81.0111 167.599 54.7995 194.13C28.3484 220.904 28.1987 221.034 21.8262 222.817C21.824 222.818 21.8219 222.818 21.8197 222.819C47.5619 264.344 93.5512 292 146 292C198.411 292 244.371 264.384 270.124 222.909Z" fill="url(#paint2_linear_3_96)"/>
<mask id="mask0_3_96" style="mask-type:alpha" maskUnits="userSpaceOnUse" x="0" y="0" width="292" height="194">
<path d="M284.029 193.702C289.195 178.754 292 162.704 292 146C292 65.3665 226.634 0 146 0C65.3664 0 0 65.3665 0 146C0 162.643 2.78487 178.636 7.91403 193.538C13.7653 189.063 30.0004 172.33 64.0309 135.858C70.2068 129.239 75.2652 127.092 84.7952 127.046C90.347 127.019 93.1289 127.544 96.372 129.229C98.8199 130.501 109.277 140.171 120.886 151.897C123.039 154.072 124.991 156.075 126.773 157.903C136.054 167.426 140.751 172.244 145.48 172.276C150.325 172.309 155.205 167.318 165.083 157.214C166.935 155.32 168.962 153.246 171.198 150.992C190.561 131.471 192.82 129.517 197.509 128.239C204.472 126.34 213.012 126.649 218.313 128.991C221.617 130.45 230.093 138.66 252.521 162.121C267.241 177.519 280.471 190.76 284.029 193.702Z" fill="#D9D9D9"/>
</mask>
<g mask="url(#mask0_3_96)">
<circle cx="145.5" cy="127.5" r="94.5" fill="#FCFDFF"/>
</g>
<defs>
<linearGradient id="paint0_linear_3_96" x1="146" y1="40.5" x2="146" y2="256" gradientUnits="userSpaceOnUse">
<stop stop-color="#6169DF"/>
<stop offset="1" stop-color="#000546"/>
</linearGradient>
<linearGradient id="paint1_linear_3_96" x1="146" y1="0" x2="146" y2="349" gradientUnits="userSpaceOnUse">
<stop stop-color="#FFD8A0"/>
<stop offset="1" stop-color="#888DC3"/>
</linearGradient>
<linearGradient id="paint2_linear_3_96" x1="145.972" y1="167.203" x2="145.972" y2="317" gradientUnits="userSpaceOnUse">
<stop stop-color="#6EB5FF"/>
<stop offset="1" stop-color="#001B67"/>
</linearGradient>
</defs>
</svg>
