<?xml version="1.0" standalone="no"?>
<!DOCTYPE svg PUBLIC "-//W3C//DTD SVG 20010904//EN"
 "http://www.w3.org/TR/2001/REC-SVG-20010904/DTD/svg10.dtd">
<svg version="1.0" xmlns="http://www.w3.org/2000/svg"
 width="700.000000pt" height="700.000000pt" viewBox="0 0 700.000000 700.000000"
 preserveAspectRatio="xMidYMid meet">
<metadata>
Created by potrace 1.14, written by Peter Selinger 2001-2017
</metadata>
<g transform="translate(0.000000,700.000000) scale(0.100000,-0.100000)"
fill="#000000" stroke="none">
<path d="M3200 6990 c-294 -30 -534 -79 -787 -161 -804 -261 -1499 -822 -1932
-1557 -85 -144 -193 -366 -246 -507 -21 -55 -41 -109 -46 -120 -54 -132 -133
-473 -166 -720 -19 -141 -25 -613 -10 -755 31 -289 111 -653 182 -825 7 -16
29 -75 50 -130 85 -226 259 -546 410 -755 246 -342 574 -658 915 -881 378
-248 836 -437 1245 -513 269 -51 387 -61 690 -61 202 0 417 10 434 19 3 2 29
6 58 10 164 19 406 77 613 146 816 271 1517 848 1934 1594 60 106 166 319 166
331 0 3 9 24 20 48 74 159 181 513 214 707 46 274 51 347 51 665 -1 333 -28
551 -105 850 -240 924 -828 1690 -1668 2175 -296 170 -722 328 -1032 384 -41
7 -104 18 -125 23 -11 2 -54 8 -95 13 -41 5 -93 12 -115 15 -65 9 -573 13
-655 5z"/>
</g>
</svg>
